<?xml version="1.0" encoding="UTF-8" standalone="no"?>
<!DOCTYPE svg PUBLIC "-//W3C//DTD SVG 1.1//EN" "http://www.w3.org/Graphics/SVG/1.1/DTD/svg11.dtd">
<svg width="100%" height="100%" viewBox="0 0 2034 2077" version="1.1" xmlns="http://www.w3.org/2000/svg" xmlns:xlink="http://www.w3.org/1999/xlink" xml:space="preserve" xmlns:serif="http://www.serif.com/" style="fill-rule:evenodd;clip-rule:evenodd;stroke-linejoin:round;stroke-miterlimit:2;">
    <g transform="matrix(1,0,0,1,-762.466,-241.129)">
        <g>
            <g transform="matrix(2.85931,0,0,2.82818,-4192.98,-365.537)">
                <g>
                    <g>
                        <g>
                            <g>
                                <g transform="matrix(1,0,0,1,1132.4,-385.613)">
                                    <g>
                                        <path d="M1002.83,662.163L941.048,600.344L882.002,723.652L941.048,782.427L1254.92,781.631L1311.76,659.879L1002.83,662.163Z" style="fill:rgb(12,84,80);"/>
                                    </g>
                                </g>
                                <g transform="matrix(1,0,0,1,1132.4,-385.613)">
                                    <path d="M908.749,797.783C908.941,799.178 832.284,938.047 832.284,938.047C832.284,938.047 811.995,973.073 821.693,970.621C825.636,969.625 844.768,944.028 844.768,944.028L938.726,816.307L1239.26,814.323C1239.26,814.323 1152.04,999.908 1152.04,999.908C1035.57,943.365 954.551,1040.23 840.873,1124.71C791.269,1161.57 744.508,1199.09 705.891,1231.17C692.994,1242.91 681.098,1253.48 670.665,1262.63C676.794,1269.43 686.902,1278.95 683.857,1287.98C681.871,1293.88 681.018,1298.08 675.849,1302.84C662.352,1315.26 612.047,1342.8 602.373,1331.69C595.59,1323.9 610.819,1293.75 620.524,1276.43L866.381,755.732L908.749,797.783Z" style="fill:rgb(38,136,140);"/>
                                </g>
                            </g>
                        </g>
                    </g>
                </g>
            </g>
            <path d="M1522.23,681.652L1643.41,800.36C1643.41,800.36 1418.73,1204.7 1398.75,1247.71C1377.09,1294.34 1388.92,1288.81 1388.92,1288.81L819.336,2155.99L1522.23,681.652Z" style="fill:rgb(12,84,80);fill-opacity:0.3;"/>
            <path d="M1735.84,241.129L1912.56,416.885L1735.84,756.786L1566.78,590.32L1735.84,241.129Z" style="fill:rgb(8,57,55);fill-opacity:0.5;"/>
        </g>
    </g>
</svg>
