<?xml version="1.0" encoding="UTF-8" standalone="no"?>
<!DOCTYPE svg PUBLIC "-//W3C//DTD SVG 1.1//EN" "http://www.w3.org/Graphics/SVG/1.1/DTD/svg11.dtd">
<!-- Created with Vectornator (http://vectornator.io/) -->
<svg height="100%" stroke-miterlimit="10" style="fill-rule:nonzero;clip-rule:evenodd;stroke-linecap:round;stroke-linejoin:round;" version="1.1" viewBox="0 0 32 32" width="100%" xml:space="preserve" xmlns="http://www.w3.org/2000/svg" xmlns:xlink="http://www.w3.org/1999/xlink">
<defs/>
<g id="Ebene-1">
<g opacity="1">
<path d="M17.138 20.7658C15.593 20.7658 14.082 20.2018 12.943 19.0608C12.306 18.4258 12.306 17.3978 12.941 16.7628C13.576 16.1278 14.605 16.1278 15.239 16.7618C16.349 17.8698 18.275 17.7498 19.532 16.4908L24.545 11.4778C25.216 10.8098 25.599 9.93684 25.599 9.08284C25.599 8.57284 25.463 7.83284 24.819 7.18684C24.128 6.49484 23.335 6.38084 22.781 6.40884C21.964 6.44584 21.163 6.81884 20.526 7.45584L17.65 10.3298C16.978 9.65784 14.217 9.16484 13.469 9.91384L18.225 5.15884C19.435 3.94884 20.996 3.23984 22.625 3.16184C24.324 3.08384 25.918 3.69484 27.112 4.88884C28.231 6.00584 28.847 7.49584 28.847 9.08384C28.846 10.7938 28.115 12.5048 26.839 13.7768L21.827 18.7888C20.517 20.1038 18.809 20.7658 17.138 20.7658Z" fill="#ffffff" fill-rule="nonzero" opacity="1" stroke="none"/>
<path d="M14.864 11.2338C16.407 11.2338 17.919 11.7978 19.06 12.9388C19.696 13.5738 19.695 14.6018 19.06 15.2368C18.426 15.8718 17.397 15.8718 16.762 15.2368C15.653 14.1298 13.727 14.2508 12.469 15.5078L7.456 20.5208C6.786 21.1888 6.402 22.0618 6.402 22.9158C6.402 23.4238 6.538 24.1658 7.183 24.8118C7.874 25.5018 8.667 25.6178 9.221 25.5918C10.038 25.5528 10.839 25.1798 11.476 24.5428L14.349 21.6708C15.021 22.3418 17.782 22.8348 18.531 22.0858L13.775 26.8408C12.566 28.0508 11.004 28.7598 9.376 28.8378C7.676 28.9178 6.082 28.3058 4.887 27.1108C3.768 25.9938 3.153 24.5038 3.153 22.9158C3.154 21.2058 3.884 19.4948 5.16 18.2228L10.172 13.2108C11.484 11.8978 13.194 11.2338 14.864 11.2338Z" fill="#ffffff" fill-rule="nonzero" opacity="1" stroke="none"/>
</g>
</g>
</svg>